<?xml version="1.0" standalone="no"?><!DOCTYPE svg PUBLIC "-//W3C//DTD SVG 1.1//EN" "http://www.w3.org/Graphics/SVG/1.1/DTD/svg11.dtd"><svg t="1693963505058" class="icon" viewBox="0 0 1024 1024" version="1.1" xmlns="http://www.w3.org/2000/svg" p-id="1111" xmlns:xlink="http://www.w3.org/1999/xlink" width="200" height="200"><path d="M849.408 866.304H716.8c-10.24 0-18.432-8.192-18.432-18.432v-132.608c0-10.24 8.192-18.432 18.432-18.432h132.608c10.24 0 18.432 8.192 18.432 18.432v132.608c0 10.24-8.192 18.432-18.432 18.432zM491.008 103.424c-71.68 10.752-125.44 73.728-125.44 147.456v19.968h292.352V250.88c0-43.008-18.432-84.48-50.688-112.64-31.744-28.16-74.24-40.96-116.224-34.816z" p-id="1112"></path><path d="M644.608 854.528c-16.896-24.576-26.624-53.76-26.624-85.504a151.552 151.552 0 0 1 151.552-151.552c2.048 0 3.584 0.512 5.632 0.512V563.2h117.248c16.384 0 29.184-13.312 29.184-29.696 0-16.384-13.312-29.696-29.184-29.696h-117.248V364.032l78.848-76.8a30.208 30.208 0 0 0-11.776-50.176 28.416 28.416 0 0 0-28.672 7.168l-83.456 81.408H293.888L210.432 244.224c-7.68-7.168-18.432-10.24-28.16-7.168-10.24 3.072-17.92 11.264-19.968 21.504-2.56 10.24 0.512 20.992 8.192 28.672l78.848 76.8v139.776h-117.76c-15.872 0-29.184 13.312-29.184 29.696 0 16.384 13.312 29.696 29.184 29.696h117.248v60.416c0 49.152 13.312 95.744 35.84 135.168L169.984 870.4a30.208 30.208 0 0 0 11.776 50.176c10.24 3.072 20.992 0.512 28.672-7.168l109.568-106.496c43.008 46.592 100.352 76.288 162.816 83.456v-356.352c0-16.384 13.312-29.696 29.184-29.696 16.384 0 29.184 13.312 29.184 29.696v356.352c36.864-4.096 71.68-16.896 103.424-35.84z" p-id="1113"></path></svg>